<?xml version="1.0" encoding="UTF-8" standalone="no"?>
<!-- Created with matplotlib (http://matplotlib.org/) -->

<svg
   xmlns:dc="http://purl.org/dc/elements/1.1/"
   xmlns:cc="http://creativecommons.org/ns#"
   xmlns:rdf="http://www.w3.org/1999/02/22-rdf-syntax-ns#"
   xmlns:svg="http://www.w3.org/2000/svg"
   xmlns="http://www.w3.org/2000/svg"
   xmlns:xlink="http://www.w3.org/1999/xlink"
   xmlns:sodipodi="http://sodipodi.sourceforge.net/DTD/sodipodi-0.dtd"
   xmlns:inkscape="http://www.inkscape.org/namespaces/inkscape"
   height="720pt"
   version="1.1"
   viewBox="0 0 1080 720"
   width="1080pt"
   id="svg5673"
   sodipodi:docname="feature_stat.svg"
   inkscape:version="0.92.3 (3ce5693, 2018-03-11)">
  <metadata
     id="metadata5677">
    <rdf:RDF>
      <cc:Work
         rdf:about="">
        <dc:format>image/svg+xml</dc:format>
        <dc:type
           rdf:resource="http://purl.org/dc/dcmitype/StillImage" />
      </cc:Work>
    </rdf:RDF>
  </metadata>
  <sodipodi:namedview
     pagecolor="#ffffff"
     bordercolor="#666666"
     borderopacity="1"
     objecttolerance="10"
     gridtolerance="10"
     guidetolerance="10"
     inkscape:pageopacity="0"
     inkscape:pageshadow="2"
     inkscape:window-width="1867"
     inkscape:window-height="1056"
     id="namedview5675"
     showgrid="false"
     inkscape:zoom="0.87569444"
     inkscape:cx="720"
     inkscape:cy="480"
     inkscape:window-x="53"
     inkscape:window-y="24"
     inkscape:window-maximized="1"
     inkscape:current-layer="figure_1" />
  <defs
     id="defs5360">
    <style
       type="text/css"
       id="style5358">
*{stroke-linecap:butt;stroke-linejoin:round;}
  </style>
  </defs>
  <g
     id="figure_1">
    <g
       style="stroke-linecap:butt;stroke-linejoin:round"
       id="matplotlib.axis_1"
       transform="matrix(1.005,0,0,1.0993986,-2.6932922,-61.295779)">
      <g
         style="stroke-linecap:butt;stroke-linejoin:round"
         id="xtick_1">
        <g
           style="stroke-linecap:butt;stroke-linejoin:round"
           id="line2d_1" />
        <g
           style="stroke-linecap:butt;stroke-linejoin:round"
           id="text_1">
          <!-- Amplitude -->
          <defs
             id="defs5378">
            <path
               style="stroke-linecap:butt;stroke-linejoin:round"
               inkscape:connector-curvature="0"
               id="LiberationSans-Bold-41"
               d="M 55.328125,0 49.21875,17.578125 H 23 L 16.890625,0 H 2.484375 L 27.59375,68.796875 H 44.578125 L 69.578125,0 Z m -16.125,48.1875 Q 38.625,49.90625 38.0625,51.640625 37.5,53.375 37.078125,54.8125 q -0.40625,1.4375 -0.671875,2.359375 -0.265625,0.9375 -0.328125,1.03125 Q 36.03125,58.0625 35.78125,57.125 35.546875,56.203125 35.125,54.78125 34.71875,53.375 34.15625,51.640625 33.59375,49.90625 33.015625,48.1875 L 26.21875,28.421875 H 46 Z" />
            <path
               style="stroke-linecap:butt;stroke-linejoin:round"
               inkscape:connector-curvature="0"
               id="LiberationSans-Bold-6d"
               d="m 38.09375,0 v 29.640625 q 0,3.078125 -0.421875,5.640625 -0.421875,2.5625 -1.375,4.390625 -0.9375,1.828125 -2.484375,2.859375 -1.53125,1.03125 -3.734375,1.03125 -2.09375,0 -3.8125,-1.109375 Q 24.5625,41.359375 23.3125,39.328125 22.078125,37.3125 21.390625,34.5 q -0.6875,-2.8125 -0.6875,-6.171875 V 0 H 6.984375 v 41.015625 q 0,1.703125 -0.03125,3.515625 -0.015625,1.8125 -0.09375,3.4375 -0.078125,1.640625 -0.125,2.9375 Q 6.6875,52.203125 6.59375,52.828125 H 19.671875 Q 19.78125,52.25 19.875,50.953125 q 0.09375,-1.296875 0.1875,-2.859375 0.109375,-1.5625 0.171875,-3.125 0.07813,-1.5625 0.07813,-2.640625 h 0.203125 q 2.53125,6.0625 6.3125,8.796875 3.78125,2.734375 9.0625,2.734375 6.046875,0 9.734375,-2.953125 3.6875,-2.953125 4.96875,-8.578125 H 50.875 q 1.421875,3.28125 3.046875,5.46875 Q 55.5625,50 57.53125,51.34375 q 1.984375,1.34375 4.296875,1.921875 2.328125,0.59375 5.0625,0.59375 4.34375,0 7.34375,-1.5625 Q 77.25,50.734375 79.125,48 81,45.265625 81.859375,41.546875 q 0.859375,-3.703125 0.859375,-8 V 0 h -13.625 v 29.640625 q 0,3.078125 -0.421875,5.640625 -0.40625,2.5625 -1.359375,4.390625 -0.953125,1.828125 -2.5,2.859375 -1.53125,1.03125 -3.734375,1.03125 -2.046875,0 -3.734375,-1.0625 -1.671875,-1.046875 -2.921875,-2.984375 -1.25,-1.921875 -1.9375,-4.609375 -0.671875,-2.671875 -0.78125,-5.953125 V 0 Z" />
            <path
               style="stroke-linecap:butt;stroke-linejoin:round"
               inkscape:connector-curvature="0"
               id="LiberationSans-Bold-70"
               d="m 56.984375,26.65625 q 0,-6 -1.203125,-11.078125 Q 54.59375,10.5 52.09375,6.828125 49.609375,3.171875 45.765625,1.09375 41.9375,-0.984375 36.71875,-0.984375 q -2.34375,0 -4.671875,0.5 Q 29.734375,0 27.625,1.09375 25.53125,2.203125 23.75,3.984375 21.96875,5.765625 20.703125,8.40625 H 20.40625 q 0.04687,-0.25 0.09375,-1.234375 0.0625,-0.96875 0.109375,-2.265625 0.04687,-1.296875 0.0625,-2.734375 0.03125,-1.4375 0.03125,-2.65625 V -20.75 H 6.984375 v 61.421875 q 0,4.0625 -0.125,7.234375 -0.125,3.171875 -0.265625,4.921875 h 13.328125 q 0.09375,-0.34375 0.21875,-1.328125 0.125,-0.96875 0.1875,-2.234375 Q 20.40625,48 20.453125,46.625 q 0.0625,-1.359375 0.0625,-2.390625 h 0.1875 q 2.484375,5.234375 6.828125,7.46875 4.359375,2.25 10.0625,2.25 5.03125,0 8.6875,-2.046875 3.671875,-2.046875 6.03125,-5.671875 2.375,-3.609375 3.515625,-8.609375 1.15625,-5 1.15625,-10.96875 z m -14.3125,0 q 0,9.03125 -2.734375,13.40625 -2.734375,4.375 -8.15625,4.375 -2.046875,0 -4.078125,-0.859375 -2.015625,-0.859375 -3.609375,-2.9375 -1.578125,-2.0625 -2.578125,-5.5625 -1,-3.484375 -1,-8.8125 0,-5.171875 0.96875,-8.625 0.984375,-3.4375 2.5625,-5.484375 1.59375,-2.046875 3.59375,-2.90625 2,-0.84375 4.046875,-0.84375 2.640625,0 4.6875,1.046875 2.046875,1.046875 3.4375,3.265625 1.40625,2.21875 2.125,5.6875 0.734375,3.46875 0.734375,8.25 z" />
            <path
               style="stroke-linecap:butt;stroke-linejoin:round"
               inkscape:connector-curvature="0"
               id="LiberationSans-Bold-6c"
               d="m 6.984375,0 v 72.46875 h 13.71875 V 0 Z" />
            <path
               style="stroke-linecap:butt;stroke-linejoin:round"
               inkscape:connector-curvature="0"
               id="LiberationSans-Bold-69"
               d="M 6.984375,62.359375 V 72.46875 h 13.71875 V 62.359375 Z M 6.984375,0 v 52.828125 h 13.71875 V 0 Z" />
            <path
               style="stroke-linecap:butt;stroke-linejoin:round"
               inkscape:connector-curvature="0"
               id="LiberationSans-Bold-74"
               d="m 20.515625,-0.875 q -6.0625,0 -9.34375,3.296875 Q 7.90625,5.71875 7.90625,12.40625 V 43.5625 h -6.6875 v 9.265625 h 7.375 l 4.296875,12.40625 h 8.59375 V 52.828125 H 31.5 V 43.5625 H 21.484375 V 16.109375 q 0,-3.859375 1.46875,-5.6875 1.46875,-1.828125 4.53125,-1.828125 1.28125,0 2.296875,0.1875 1.03125,0.203125 2.296875,0.5 v -8.5 q -2.53125,-0.828125 -5.375,-1.234375 Q 23.875,-0.875 20.515625,-0.875 Z" />
            <path
               style="stroke-linecap:butt;stroke-linejoin:round"
               inkscape:connector-curvature="0"
               id="LiberationSans-Bold-75"
               d="M 19.921875,52.828125 V 23.1875 q 0,-3.0625 0.484375,-5.640625 0.5,-2.5625 1.609375,-4.390625 1.125,-1.828125 2.90625,-2.859375 1.78125,-1.015625 4.375,-1.015625 2.484375,0 4.515625,1.09375 2.03125,1.09375 3.484375,3.125 1.46875,2.03125 2.265625,4.828125 0.8125,2.8125 0.8125,6.1875 v 28.3125 H 54.109375 V 11.8125 q 0,-1.65625 0.01563,-3.484375 Q 54.15625,6.5 54.21875,4.859375 54.296875,3.21875 54.359375,1.921875 54.4375,0.640625 54.5,0 H 41.40625 q -0.04687,0.59375 -0.171875,1.875 -0.125,1.296875 -0.203125,2.859375 -0.0625,1.5625 -0.140625,3.125 -0.0625,1.5625 -0.0625,2.640625 h -0.25 q -2.734375,-6 -6.96875,-8.75 -4.21875,-2.734375 -10.03125,-2.734375 -4.734375,0 -8.0625,1.5625 -3.3125,1.578125 -5.390625,4.28125 -2.0625,2.703125 -3,6.40625 -0.921875,3.71875 -0.921875,8.015625 v 33.546875 z" />
            <path
               style="stroke-linecap:butt;stroke-linejoin:round"
               inkscape:connector-curvature="0"
               id="LiberationSans-Bold-64"
               d="M 41.21875,0 Q 41.109375,0.390625 40.984375,1.390625 40.875,2.390625 40.75,3.65625 40.625,4.9375 40.546875,6.25 q -0.0625,1.3125 -0.0625,2.34375 H 40.28125 q -2.390625,-5.125 -6.671875,-7.359375 -4.265625,-2.21875 -10.21875,-2.21875 -4.984375,0 -8.625,2.046875 -3.625,2.0625 -6,5.71875 -2.375,3.671875 -3.515625,8.671875 -1.140625,5 -1.140625,10.921875 0,6 1.1875,11.03125 1.203125,5.03125 3.6875,8.65625 2.484375,3.640625 6.3125,5.6875 3.84375,2.0625 9.125,2.0625 2.578125,0 4.96875,-0.546875 2.390625,-0.53125 4.4375,-1.65625 2.0625,-1.125 3.71875,-2.890625 1.65625,-1.75 2.828125,-4.234375 h 0.109375 q 0,0.484375 -0.03125,1.4375 -0.01563,0.953125 -0.01563,2.171875 0,1.21875 -0.03125,2.53125 Q 40.375,51.953125 40.375,53.171875 V 72.46875 h 13.734375 v -60.9375 q 0,-3.859375 0.140625,-6.875 0.140625,-3 0.25,-4.65625 z m -0.640625,26.703125 q 0,5.234375 -0.984375,8.671875 -0.96875,3.4375 -2.5625,5.46875 -1.578125,2.03125 -3.609375,2.828125 -2.03125,0.8125 -4.125,0.8125 -2.640625,0 -4.671875,-1.03125 -2.015625,-1.015625 -3.40625,-3.21875 -1.390625,-2.203125 -2.109375,-5.625 -0.703125,-3.40625 -0.703125,-8.234375 0,-17.96875 10.796875,-17.96875 2.046875,0 4.09375,0.875 2.0625,0.875 3.671875,2.96875 1.609375,2.109375 2.609375,5.640625 1,3.546875 1,8.8125 z" />
            <path
               style="stroke-linecap:butt;stroke-linejoin:round"
               inkscape:connector-curvature="0"
               id="LiberationSans-Bold-65"
               d="m 28.609375,-0.984375 q -5.703125,0 -10.28125,1.6875 -4.5625,1.6875 -7.78125,5.125 -3.21875,3.453125 -4.9375,8.640625 -1.703125,5.203125 -1.703125,12.1875 0,7.578125 2.015625,12.75 2.03125,5.171875 5.46875,8.375 3.453125,3.203125 7.9375,4.609375 4.5,1.421875 9.484375,1.421875 6.25,0 10.65625,-2.171875 4.421875,-2.171875 7.25,-6.078125 2.84375,-3.90625 4.15625,-9.359375 1.328125,-5.4375 1.328125,-12.03125 V 23.78125 H 18.3125 q 0,-3.328125 0.578125,-6.1875 0.59375,-2.84375 1.90625,-4.921875 1.328125,-2.078125 3.421875,-3.28125 2.09375,-1.1875 5.078125,-1.1875 3.609375,0 5.90625,1.53125 Q 37.5,11.28125 38.484375,14.5 l 12.9375,-1.125 Q 50.53125,11.140625 48.9375,8.59375 47.359375,6.0625 44.71875,3.9375 q -2.625,-2.125 -6.5625,-3.53125 -3.921875,-1.390625 -9.546875,-1.390625 z m 0,46.15625 q -2.09375,0 -3.921875,-0.71875 -1.828125,-0.703125 -3.171875,-2.25 -1.34375,-1.53125 -2.1875,-3.96875 Q 18.5,35.796875 18.40625,32.375 h 20.515625 q -0.390625,6.390625 -3.078125,9.59375 -2.6875,3.203125 -7.234375,3.203125 z" />
          </defs>
          <g
             id="g5398"
             transform="matrix(0.24,0,0,-0.24,180.96375,654.3925)"
             style="fill:#262626;stroke-linecap:butt;stroke-linejoin:round">
            <use
               height="100%"
               width="100%"
               y="0"
               x="0"
               style="stroke-linecap:butt;stroke-linejoin:round"
               id="use5380"
               xlink:href="#LiberationSans-Bold-41" />
            <use
               height="100%"
               width="100%"
               y="0"
               style="stroke-linecap:butt;stroke-linejoin:round"
               id="use5382"
               xlink:href="#LiberationSans-Bold-6d"
               x="72.216797" />
            <use
               height="100%"
               width="100%"
               y="0"
               style="stroke-linecap:butt;stroke-linejoin:round"
               id="use5384"
               xlink:href="#LiberationSans-Bold-70"
               x="161.13281" />
            <use
               height="100%"
               width="100%"
               y="0"
               style="stroke-linecap:butt;stroke-linejoin:round"
               id="use5386"
               xlink:href="#LiberationSans-Bold-6c"
               x="222.2168" />
            <use
               height="100%"
               width="100%"
               y="0"
               style="stroke-linecap:butt;stroke-linejoin:round"
               id="use5388"
               xlink:href="#LiberationSans-Bold-69"
               x="250" />
            <use
               height="100%"
               width="100%"
               y="0"
               style="stroke-linecap:butt;stroke-linejoin:round"
               id="use5390"
               xlink:href="#LiberationSans-Bold-74"
               x="277.7832" />
            <use
               height="100%"
               width="100%"
               y="0"
               style="stroke-linecap:butt;stroke-linejoin:round"
               id="use5392"
               xlink:href="#LiberationSans-Bold-75"
               x="311.08398" />
            <use
               height="100%"
               width="100%"
               y="0"
               style="stroke-linecap:butt;stroke-linejoin:round"
               id="use5394"
               xlink:href="#LiberationSans-Bold-64"
               x="372.16797" />
            <use
               height="100%"
               width="100%"
               y="0"
               style="stroke-linecap:butt;stroke-linejoin:round"
               id="use5396"
               xlink:href="#LiberationSans-Bold-65"
               x="433.25195" />
          </g>
        </g>
      </g>
      <g
         style="stroke-linecap:butt;stroke-linejoin:round"
         id="xtick_2">
        <g
           style="stroke-linecap:butt;stroke-linejoin:round"
           id="line2d_2" />
        <g
           style="stroke-linecap:butt;stroke-linejoin:round"
           id="text_2">
          <!-- Freq -->
          <defs
             id="defs5406">
            <path
               style="stroke-linecap:butt;stroke-linejoin:round"
               inkscape:connector-curvature="0"
               id="LiberationSans-Bold-46"
               d="M 21.09375,57.671875 V 36.375 H 56.296875 V 25.25 H 21.09375 V 0 H 6.6875 v 68.796875 h 50.734375 v -11.125 z" />
            <path
               style="stroke-linecap:butt;stroke-linejoin:round"
               inkscape:connector-curvature="0"
               id="LiberationSans-Bold-72"
               d="m 6.984375,0 v 40.4375 q 0,1.703125 -0.03125,3.609375 -0.015625,1.90625 -0.09375,3.640625 -0.078125,1.734375 -0.125,3.125 Q 6.6875,52.203125 6.59375,52.828125 H 19.671875 Q 19.78125,52.25 19.875,50.796875 q 0.09375,-1.4375 0.1875,-3.140625 0.109375,-1.703125 0.171875,-3.390625 0.07813,-1.6875 0.07813,-2.71875 h 0.203125 q 1.015625,2.890625 2.03125,5.15625 1.03125,2.265625 2.421875,3.859375 1.40625,1.59375 3.359375,2.4375 1.953125,0.859375 4.828125,0.859375 1.21875,0 2.40625,-0.21875 1.203125,-0.21875 1.84375,-0.515625 V 41.65625 q -1.328125,0.28125 -2.671875,0.5 -1.328125,0.234375 -3.1875,0.234375 -5.125,0 -7.984375,-4.15625 -2.859375,-4.15625 -2.859375,-12.3125 V 0 Z" />
            <path
               style="stroke-linecap:butt;stroke-linejoin:round"
               inkscape:connector-curvature="0"
               id="LiberationSans-Bold-71"
               d="m 4.109375,26.375 q 0,6 1.21875,11.046875 1.21875,5.0625 3.734375,8.6875 2.515625,3.640625 6.34375,5.6875 3.828125,2.0625 9.109375,2.0625 5.265625,0 9.4375,-2.25 4.1875,-2.25 6.53125,-7.265625 0,1.015625 0.0625,2.359375 0.07813,1.34375 0.203125,2.578125 0.125,1.25 0.234375,2.21875 0.125,0.984375 0.234375,1.328125 h 13.171875 q -0.09375,-1.75 -0.1875,-4.921875 -0.09375,-3.171875 -0.09375,-7.234375 V -20.75 h -13.625 V 1.21875 q 0,1.375 0.04687,2.6875 0.04687,1.3125 0.09375,2.4375 0.04687,1.28125 0.09375,2.453125 H 40.625 q -2.390625,-5.140625 -6.84375,-7.46875 -4.4375,-2.3125 -10.390625,-2.3125 -4.984375,0 -8.625,2.046875 -3.625,2.0625 -6,5.71875 -2.375,3.671875 -3.515625,8.671875 -1.140625,5 -1.140625,10.921875 z m 36.46875,0.28125 q 0,5.28125 -0.984375,8.6875 -0.96875,3.421875 -2.53125,5.453125 -1.5625,2.03125 -3.59375,2.828125 -2.015625,0.8125 -4.078125,0.8125 -2.625,0 -4.65625,-1.03125 Q 22.703125,42.390625 21.28125,40.1875 19.875,37.984375 19.140625,34.5625 18.40625,31.15625 18.40625,26.375 q 0,-17.96875 10.890625,-17.96875 2.046875,0 4.078125,0.875 2.03125,0.875 3.640625,2.96875 1.609375,2.109375 2.578125,5.625 0.984375,3.515625 0.984375,8.78125 z" />
          </defs>
          <g
             id="g5416"
             transform="matrix(0.24,0,0,-0.24,422.8725,654.3925)"
             style="fill:#262626;stroke-linecap:butt;stroke-linejoin:round">
            <use
               height="100%"
               width="100%"
               y="0"
               x="0"
               style="stroke-linecap:butt;stroke-linejoin:round"
               id="use5408"
               xlink:href="#LiberationSans-Bold-46" />
            <use
               height="100%"
               width="100%"
               y="0"
               style="stroke-linecap:butt;stroke-linejoin:round"
               id="use5410"
               xlink:href="#LiberationSans-Bold-72"
               x="61.083984" />
            <use
               height="100%"
               width="100%"
               y="0"
               style="stroke-linecap:butt;stroke-linejoin:round"
               id="use5412"
               xlink:href="#LiberationSans-Bold-65"
               x="100" />
            <use
               height="100%"
               width="100%"
               y="0"
               style="stroke-linecap:butt;stroke-linejoin:round"
               id="use5414"
               xlink:href="#LiberationSans-Bold-71"
               x="155.61523" />
          </g>
        </g>
      </g>
      <g
         style="stroke-linecap:butt;stroke-linejoin:round"
         id="xtick_3">
        <g
           style="stroke-linecap:butt;stroke-linejoin:round"
           id="line2d_3" />
        <g
           style="stroke-linecap:butt;stroke-linejoin:round"
           id="text_3">
          <!-- Basal -->
          <defs
             id="defs5424">
            <path
               style="stroke-linecap:butt;stroke-linejoin:round"
               inkscape:connector-curvature="0"
               id="LiberationSans-Bold-42"
               d="m 67.671875,19.625 q 0,-5.21875 -2.09375,-8.953125 Q 63.484375,6.9375 59.84375,4.5625 56.203125,2.203125 51.359375,1.09375 46.53125,0 41.109375,0 H 6.6875 v 68.796875 h 31.5 q 6.09375,0 10.859375,-1.046875 4.765625,-1.046875 8.03125,-3.203125 3.28125,-2.140625 4.953125,-5.390625 1.6875,-3.25 1.6875,-7.640625 0,-5.859375 -3.25,-9.890625 -3.234375,-4.03125 -9.875,-5.4375 8.34375,-0.984375 12.703125,-5.265625 4.375,-4.265625 4.375,-11.296875 z M 49.21875,49.5625 q 0,4.640625 -2.953125,6.59375 Q 43.3125,58.109375 37.5,58.109375 H 21.09375 V 41.0625 h 16.5 q 6.109375,0 8.859375,2.125 2.765625,2.125 2.765625,6.375 z m 4,-28.8125 q 0,2.734375 -1.078125,4.59375 -1.0625,1.859375 -2.953125,2.96875 -1.875,1.125 -4.390625,1.609375 -2.515625,0.5 -5.4375,0.5 H 21.09375 V 10.6875 h 18.796875 q 2.828125,0 5.265625,0.46875 2.453125,0.46875 4.234375,1.609375 1.78125,1.15625 2.796875,3.109375 1.03125,1.953125 1.03125,4.875 z" />
            <path
               style="stroke-linecap:butt;stroke-linejoin:round"
               inkscape:connector-curvature="0"
               id="LiberationSans-Bold-61"
               d="m 19.1875,-0.984375 q -3.8125,0 -6.8125,1.046875 -3,1.0625 -5.109375,3.078125 Q 5.171875,5.171875 4.046875,8.15625 2.9375,11.140625 2.9375,14.9375 q 0,4.6875 1.625,7.890625 Q 6.203125,26.03125 9.03125,28 q 2.828125,1.984375 6.640625,2.875 3.8125,0.90625 8.109375,0.96875 l 11.375,0.1875 v 2.6875 q 0,2.875 -0.515625,4.796875 -0.515625,1.9375 -1.5,3.15625 -0.96875,1.21875 -2.40625,1.734375 -1.4375,0.515625 -3.296875,0.515625 -1.703125,0 -3.046875,-0.34375 Q 23.046875,44.234375 22.0625,43.375 21.09375,42.53125 20.484375,41.09375 19.875,39.65625 19.625,37.453125 l -14.296875,0.6875 q 0.578125,3.46875 2.140625,6.3125 1.5625,2.859375 4.3125,4.953125 2.765625,2.109375 6.796875,3.25 4.03125,1.15625 9.453125,1.15625 4.921875,0 8.78125,-1.21875 3.859375,-1.21875 6.546875,-3.640625 2.6875,-2.421875 4.09375,-5.9375 Q 48.875,39.5 48.875,34.859375 V 15.625 q 0,-1.859375 0.171875,-3.328125 0.171875,-1.453125 0.625,-2.453125 0.46875,-1 1.328125,-1.515625 0.859375,-0.515625 2.21875,-0.515625 1.5625,0 3.03125,0.296875 V 0.6875 q -1.21875,-0.296875 -2.203125,-0.546875 -0.96875,-0.234375 -1.953125,-0.375 -0.96875,-0.15625 -2.078125,-0.25 -1.09375,-0.109375 -2.546875,-0.109375 -5.1875,0 -7.65625,2.546875 Q 37.359375,4.5 36.859375,9.421875 h -0.28125 Q 33.84375,4.5 29.5625,1.75 25.296875,-0.984375 19.1875,-0.984375 Z M 35.15625,24.46875 28.125,24.359375 Q 25.921875,24.265625 23.9375,24 21.96875,23.734375 20.484375,22.875 19,22.015625 18.109375,20.40625 q -0.875,-1.609375 -0.875,-4.390625 0,-3.765625 1.734375,-5.59375 1.734375,-1.828125 4.609375,-1.828125 2.640625,0 4.78125,1.125 2.15625,1.125 3.640625,2.953125 1.5,1.828125 2.328125,4.21875 0.828125,2.390625 0.828125,4.890625 z" />
            <path
               style="stroke-linecap:butt;stroke-linejoin:round"
               inkscape:connector-curvature="0"
               id="LiberationSans-Bold-73"
               d="m 51.515625,15.4375 q 0,-3.8125 -1.59375,-6.84375 Q 48.34375,5.5625 45.3125,3.4375 42.28125,1.3125 37.890625,0.15625 33.5,-0.984375 27.875,-0.984375 q -5.015625,0 -9.078125,0.734375 Q 14.75,0.484375 11.6875,2.171875 q -3.046875,1.6875 -5.09375,4.375 -2.046875,2.6875 -3.078125,6.640625 l 12.0625,1.796875 q 0.578125,-2.1875 1.609375,-3.5625 1.03125,-1.359375 2.53125,-2.09375 1.515625,-0.734375 3.546875,-0.984375 2.03125,-0.234375 4.609375,-0.234375 2.34375,0 4.375,0.265625 2.03125,0.265625 3.515625,0.921875 1.484375,0.671875 2.3125,1.859375 0.84375,1.203125 0.84375,3 0,2.0625 -1.203125,3.25 -1.1875,1.203125 -3.265625,1.953125 -2.078125,0.765625 -4.890625,1.3125 -2.796875,0.5625 -5.984375,1.296875 -3.3125,0.734375 -6.546875,1.75 Q 13.8125,24.75 11.265625,26.5 q -2.53125,1.765625 -4.09375,4.46875 -1.5625,2.71875 -1.5625,6.875 0,3.765625 1.46875,6.71875 1.46875,2.953125 4.296875,5.015625 2.828125,2.078125 7,3.171875 4.1875,1.109375 9.609375,1.109375 4.296875,0 8,-0.8125 3.71875,-0.796875 6.640625,-2.53125 2.9375,-1.734375 4.90625,-4.421875 1.984375,-2.6875 2.765625,-6.5 l -12.15625,-1.265625 q -0.34375,1.90625 -1.234375,3.140625 -0.875,1.25 -2.171875,1.984375 -1.28125,0.734375 -3,1 -1.703125,0.28125 -3.75,0.28125 -4.890625,0 -7.328125,-1.25 -2.4375,-1.25 -2.4375,-4.171875 0,-1.8125 1,-2.890625 1,-1.0625 2.828125,-1.78125 1.828125,-0.703125 4.34375,-1.21875 2.515625,-0.515625 5.5,-1.25 3.65625,-0.78125 7.1875,-1.828125 3.546875,-1.046875 6.296875,-2.875 2.765625,-1.828125 4.453125,-4.71875 1.6875,-2.875 1.6875,-7.3125 z" />
          </defs>
          <g
             id="g5436"
             transform="matrix(0.24,0,0,-0.24,626.10563,654.3925)"
             style="fill:#262626;stroke-linecap:butt;stroke-linejoin:round">
            <use
               height="100%"
               width="100%"
               y="0"
               x="0"
               style="stroke-linecap:butt;stroke-linejoin:round"
               id="use5426"
               xlink:href="#LiberationSans-Bold-42" />
            <use
               height="100%"
               width="100%"
               y="0"
               style="stroke-linecap:butt;stroke-linejoin:round"
               id="use5428"
               xlink:href="#LiberationSans-Bold-61"
               x="72.216797" />
            <use
               height="100%"
               width="100%"
               y="0"
               style="stroke-linecap:butt;stroke-linejoin:round"
               id="use5430"
               xlink:href="#LiberationSans-Bold-73"
               x="127.83203" />
            <use
               height="100%"
               width="100%"
               y="0"
               style="stroke-linecap:butt;stroke-linejoin:round"
               id="use5432"
               xlink:href="#LiberationSans-Bold-61"
               x="183.44727" />
            <use
               height="100%"
               width="100%"
               y="0"
               style="stroke-linecap:butt;stroke-linejoin:round"
               id="use5434"
               xlink:href="#LiberationSans-Bold-6c"
               x="239.0625" />
          </g>
        </g>
      </g>
      <g
         style="stroke-linecap:butt;stroke-linejoin:round"
         id="xtick_4">
        <g
           style="stroke-linecap:butt;stroke-linejoin:round"
           id="line2d_4" />
        <g
           style="stroke-linecap:butt;stroke-linejoin:round"
           id="text_4">
          <!-- WHM -->
          <defs
             id="defs5444">
            <path
               style="stroke-linecap:butt;stroke-linejoin:round"
               inkscape:connector-curvature="0"
               id="LiberationSans-Bold-57"
               d="M 76.515625,0 H 59.421875 L 50.09375,39.796875 q -0.4375,1.8125 -0.953125,4.296875 -0.5,2.484375 -0.953125,4.828125 Q 47.65625,51.609375 47.21875,54.5 46.6875,51.609375 46.140625,48.875 45.90625,47.703125 45.65625,46.453125 45.40625,45.21875 45.140625,44.015625 44.875,42.828125 44.65625,41.75 44.4375,40.671875 44.1875,39.796875 L 34.90625,0 H 17.828125 L 0.09375,68.796875 h 14.609375 l 8.59375,-38.28125 q 0.734375,-3.125 1.359375,-6.15625 0.640625,-3.015625 1.171875,-5.40625 0.59375,-2.796875 1.078125,-5.328125 0.734375,3.609375 1.421875,7.03125 0.28125,1.46875 0.625,3.03125 0.34375,1.5625 0.65625,3.0625 0.328125,1.515625 0.640625,2.90625 0.3125,1.40625 0.5625,2.515625 l 8.5,36.625 h 16.109375 l 8.6875,-36.625 Q 64.40625,31 64.6875,29.5625 64.984375,28.125 65.28125,26.578125 65.578125,25.046875 65.859375,23.5 66.15625,21.96875 66.40625,20.515625 67,17.09375 67.578125,13.625 q 0.59375,2.734375 1.21875,5.65625 0.546875,2.5 1.21875,5.46875 0.6875,2.984375 1.375,5.765625 l 8.296875,38.28125 h 14.59375 z" />
            <path
               style="stroke-linecap:butt;stroke-linejoin:round"
               inkscape:connector-curvature="0"
               id="LiberationSans-Bold-48"
               d="M 51.078125,0 V 29.5 H 21.09375 V 0 H 6.6875 V 68.796875 H 21.09375 V 41.40625 h 29.984375 v 27.390625 h 14.40625 V 0 Z" />
            <path
               style="stroke-linecap:butt;stroke-linejoin:round"
               inkscape:connector-curvature="0"
               id="LiberationSans-Bold-4d"
               d="m 63.8125,0 v 41.703125 q 0,2.484375 0.07813,5.125 0.07813,2.640625 0.171875,4.828125 0.140625,2.59375 0.25,5.03125 Q 63.28125,52.828125 62.359375,49.359375 61.96875,47.90625 61.515625,46.34375 61.078125,44.78125 60.65625,43.3125 60.25,41.84375 59.859375,40.578125 59.46875,39.3125 59.1875,38.375 L 46.78125,0 h -10.25 L 24.125,38.375 q -0.296875,0.9375 -0.671875,2.203125 -0.359375,1.265625 -0.78125,2.734375 -0.40625,1.46875 -0.84375,3.03125 -0.4375,1.5625 -0.875,3.015625 -0.984375,3.46875 -2.0625,7.328125 0.15625,-2.828125 0.296875,-5.5625 0.09375,-2.34375 0.1875,-4.9375 0.109375,-2.578125 0.109375,-4.484375 V 0 H 6.6875 V 68.796875 H 25.984375 L 38.28125,30.328125 q 0.484375,-1.515625 1.046875,-3.71875 0.5625,-2.1875 1.109375,-4.25 0.578125,-2.390625 1.265625,-4.96875 0.6875,2.53125 1.3125,4.875 0.296875,1.03125 0.578125,2.09375 0.296875,1.078125 0.59375,2.09375 0.296875,1.03125 0.578125,1.953125 0.296875,0.9375 0.546875,1.671875 l 12.109375,38.71875 h 19.1875 V 0 Z" />
          </defs>
          <g
             id="g5452"
             transform="matrix(0.24,0,0,-0.24,837.38625,654.3925)"
             style="fill:#262626;stroke-linecap:butt;stroke-linejoin:round">
            <use
               height="100%"
               width="100%"
               y="0"
               x="0"
               style="stroke-linecap:butt;stroke-linejoin:round"
               id="use5446"
               xlink:href="#LiberationSans-Bold-57" />
            <use
               height="100%"
               width="100%"
               y="0"
               style="stroke-linecap:butt;stroke-linejoin:round"
               id="use5448"
               xlink:href="#LiberationSans-Bold-48"
               x="94.384766" />
            <use
               height="100%"
               width="100%"
               y="0"
               style="stroke-linecap:butt;stroke-linejoin:round"
               id="use5450"
               xlink:href="#LiberationSans-Bold-4d"
               x="166.60156" />
          </g>
        </g>
      </g>
      <g
         style="stroke-linecap:butt;stroke-linejoin:round"
         id="text_5">
        <!-- Feature -->
        <g
           id="g5470"
           transform="matrix(0.32,0,0,-0.32,495.7075,686.5625)"
           style="fill:#262626;stroke-linecap:butt;stroke-linejoin:round">
          <use
             height="100%"
             width="100%"
             y="0"
             x="0"
             style="stroke-linecap:butt;stroke-linejoin:round"
             id="use5456"
             xlink:href="#LiberationSans-Bold-46" />
          <use
             height="100%"
             width="100%"
             y="0"
             style="stroke-linecap:butt;stroke-linejoin:round"
             id="use5458"
             xlink:href="#LiberationSans-Bold-65"
             x="61.083984" />
          <use
             height="100%"
             width="100%"
             y="0"
             style="stroke-linecap:butt;stroke-linejoin:round"
             id="use5460"
             xlink:href="#LiberationSans-Bold-61"
             x="116.69922" />
          <use
             height="100%"
             width="100%"
             y="0"
             style="stroke-linecap:butt;stroke-linejoin:round"
             id="use5462"
             xlink:href="#LiberationSans-Bold-74"
             x="172.31445" />
          <use
             height="100%"
             width="100%"
             y="0"
             style="stroke-linecap:butt;stroke-linejoin:round"
             id="use5464"
             xlink:href="#LiberationSans-Bold-75"
             x="205.61523" />
          <use
             height="100%"
             width="100%"
             y="0"
             style="stroke-linecap:butt;stroke-linejoin:round"
             id="use5466"
             xlink:href="#LiberationSans-Bold-72"
             x="266.69922" />
          <use
             height="100%"
             width="100%"
             y="0"
             style="stroke-linecap:butt;stroke-linejoin:round"
             id="use5468"
             xlink:href="#LiberationSans-Bold-65"
             x="305.61523" />
        </g>
      </g>
    </g>
    <g
       id="ytick_1"
       style="stroke-linecap:butt;stroke-linejoin:round">
      <g
         id="line2d_5"
         style="stroke-linecap:butt;stroke-linejoin:round" />
      <g
         id="text_6"
         style="stroke-linecap:butt;stroke-linejoin:round">
        <!-- 0.0 -->
        <defs
           id="defs5477">
          <path
             d="m 51.515625,34.421875 q 0,-9.859375 -1.8125,-16.625 -1.796875,-6.765625 -5,-10.9375 Q 41.5,2.6875 37.125,0.84375 q -4.359375,-1.828125 -9.53125,-1.828125 -5.1875,0 -9.53125,1.8125 -4.34375,1.8125 -7.46875,5.984375 -3.125,4.171875 -4.890625,10.9375 -1.75,6.765625 -1.75,16.671875 0,10.40625 1.734375,17.21875 1.734375,6.8125 4.90625,10.859375 3.171875,4.046875 7.59375,5.6875 4.421875,1.640625 9.796875,1.640625 5.03125,0 9.34375,-1.640625 4.328125,-1.640625 7.46875,-5.6875 3.15625,-4.046875 4.9375,-10.859375 1.78125,-6.8125 1.78125,-17.21875 z m -13.765625,0 q 0,7.28125 -0.546875,12.03125 -0.53125,4.765625 -1.703125,7.578125 -1.171875,2.8125 -3.0625,3.921875 -1.875,1.125 -4.5625,1.125 -2.875,0 -4.828125,-1.15625 -1.953125,-1.140625 -3.15625,-3.96875 -1.1875,-2.828125 -1.703125,-7.59375 -0.515625,-4.75 -0.515625,-11.9375 0,-7.078125 0.53125,-11.8125 Q 18.75,17.875 19.921875,15.015625 21.09375,12.15625 23,10.984375 24.90625,9.8125 27.6875,9.8125 q 2.6875,0 4.59375,1.171875 1.90625,1.171875 3.125,4.03125 1.21875,2.859375 1.78125,7.59375 0.5625,4.734375 0.5625,11.8125 z"
             id="LiberationSans-Bold-30"
             inkscape:connector-curvature="0"
             style="stroke-linecap:butt;stroke-linejoin:round" />
          <path
             d="m 6.78125,0 v 14.890625 h 14.125 V 0 Z"
             id="LiberationSans-Bold-2e"
             inkscape:connector-curvature="0"
             style="stroke-linecap:butt;stroke-linejoin:round" />
        </defs>
        <g
           style="fill:#262626;stroke-linecap:butt;stroke-linejoin:round"
           transform="matrix(0.24,0,0,-0.24,94.64,638.69625)"
           id="g5485">
          <use
             xlink:href="#LiberationSans-Bold-30"
             id="use5479"
             style="stroke-linecap:butt;stroke-linejoin:round"
             x="0"
             y="0"
             width="100%"
             height="100%" />
          <use
             x="55.615234"
             xlink:href="#LiberationSans-Bold-2e"
             id="use5481"
             style="stroke-linecap:butt;stroke-linejoin:round"
             y="0"
             width="100%"
             height="100%" />
          <use
             x="83.398438"
             xlink:href="#LiberationSans-Bold-30"
             id="use5483"
             style="stroke-linecap:butt;stroke-linejoin:round"
             y="0"
             width="100%"
             height="100%" />
        </g>
      </g>
    </g>
    <g
       id="ytick_2"
       style="stroke-linecap:butt;stroke-linejoin:round">
      <g
         id="line2d_6"
         style="stroke-linecap:butt;stroke-linejoin:round" />
      <g
         id="text_7"
         style="stroke-linecap:butt;stroke-linejoin:round">
        <!-- 0.5 -->
        <defs
           id="defs5491">
          <path
             d="m 52.828125,22.90625 q 0,-5.1875 -1.640625,-9.5625 -1.625,-4.359375 -4.859375,-7.5625 -3.21875,-3.1875 -7.984375,-4.984375 -4.75,-1.78125 -11,-1.78125 -5.765625,0 -10.0625,1.390625 -4.296875,1.40625 -7.25,3.859375 -2.953125,2.46875 -4.640625,5.78125 Q 3.71875,13.375 3.078125,17.1875 l 13.71875,1.125 Q 17.1875,16.703125 17.890625,15.1875 18.609375,13.671875 19.875,12.5 21.140625,11.328125 23,10.609375 24.859375,9.90625 27.484375,9.90625 q 5.140625,0 8.1875,3.265625 3.046875,3.28125 3.046875,9.4375 0,2.734375 -0.765625,4.921875 -0.75,2.203125 -2.140625,3.765625 -1.390625,1.5625 -3.421875,2.390625 -2.015625,0.828125 -4.609375,0.828125 -3.421875,0 -5.625,-1.296875 -2.1875,-1.28125 -3.703125,-3.140625 h -13.375 L 7.46875,68.796875 H 48.828125 V 58.59375 h -28.90625 l -1.125,-17.375 q 2.046875,1.796875 5.171875,3.09375 3.125,1.296875 7.28125,1.296875 5.078125,0 9.078125,-1.671875 4.015625,-1.65625 6.796875,-4.640625 2.78125,-2.96875 4.234375,-7.140625 1.46875,-4.171875 1.46875,-9.25 z"
             id="LiberationSans-Bold-35"
             inkscape:connector-curvature="0"
             style="stroke-linecap:butt;stroke-linejoin:round" />
        </defs>
        <g
           style="fill:#262626;stroke-linecap:butt;stroke-linejoin:round"
           transform="matrix(0.24,0,0,-0.24,94.64,573.98196)"
           id="g5499">
          <use
             xlink:href="#LiberationSans-Bold-30"
             id="use5493"
             style="stroke-linecap:butt;stroke-linejoin:round"
             x="0"
             y="0"
             width="100%"
             height="100%" />
          <use
             x="55.615234"
             xlink:href="#LiberationSans-Bold-2e"
             id="use5495"
             style="stroke-linecap:butt;stroke-linejoin:round"
             y="0"
             width="100%"
             height="100%" />
          <use
             x="83.398438"
             xlink:href="#LiberationSans-Bold-35"
             id="use5497"
             style="stroke-linecap:butt;stroke-linejoin:round"
             y="0"
             width="100%"
             height="100%" />
        </g>
      </g>
    </g>
    <g
       id="ytick_3"
       style="stroke-linecap:butt;stroke-linejoin:round">
      <g
         id="line2d_7"
         style="stroke-linecap:butt;stroke-linejoin:round" />
      <g
         id="text_8"
         style="stroke-linecap:butt;stroke-linejoin:round">
        <!-- 1.0 -->
        <defs
           id="defs5505">
          <path
             d="M 6.296875,0 V 10.203125 H 23.34375 V 57.125 l -16.5,-10.296875 V 57.625 L 24.078125,68.796875 H 37.0625 V 10.203125 H 52.828125 V 0 Z"
             id="LiberationSans-Bold-31"
             inkscape:connector-curvature="0"
             style="stroke-linecap:butt;stroke-linejoin:round" />
        </defs>
        <g
           style="fill:#262626;stroke-linecap:butt;stroke-linejoin:round"
           transform="matrix(0.24,0,0,-0.24,94.64,509.26768)"
           id="g5513">
          <use
             xlink:href="#LiberationSans-Bold-31"
             id="use5507"
             style="stroke-linecap:butt;stroke-linejoin:round"
             x="0"
             y="0"
             width="100%"
             height="100%" />
          <use
             x="55.615234"
             xlink:href="#LiberationSans-Bold-2e"
             id="use5509"
             style="stroke-linecap:butt;stroke-linejoin:round"
             y="0"
             width="100%"
             height="100%" />
          <use
             x="83.398438"
             xlink:href="#LiberationSans-Bold-30"
             id="use5511"
             style="stroke-linecap:butt;stroke-linejoin:round"
             y="0"
             width="100%"
             height="100%" />
        </g>
      </g>
    </g>
    <g
       id="ytick_4"
       style="stroke-linecap:butt;stroke-linejoin:round">
      <g
         id="line2d_8"
         style="stroke-linecap:butt;stroke-linejoin:round" />
      <g
         id="text_9"
         style="stroke-linecap:butt;stroke-linejoin:round">
        <!-- 1.5 -->
        <g
           style="fill:#262626;stroke-linecap:butt;stroke-linejoin:round"
           transform="matrix(0.24,0,0,-0.24,94.64,444.55339)"
           id="g5524">
          <use
             xlink:href="#LiberationSans-Bold-31"
             id="use5518"
             style="stroke-linecap:butt;stroke-linejoin:round"
             x="0"
             y="0"
             width="100%"
             height="100%" />
          <use
             x="55.615234"
             xlink:href="#LiberationSans-Bold-2e"
             id="use5520"
             style="stroke-linecap:butt;stroke-linejoin:round"
             y="0"
             width="100%"
             height="100%" />
          <use
             x="83.398438"
             xlink:href="#LiberationSans-Bold-35"
             id="use5522"
             style="stroke-linecap:butt;stroke-linejoin:round"
             y="0"
             width="100%"
             height="100%" />
        </g>
      </g>
    </g>
    <g
       id="ytick_5"
       style="stroke-linecap:butt;stroke-linejoin:round">
      <g
         id="line2d_9"
         style="stroke-linecap:butt;stroke-linejoin:round" />
      <g
         id="text_10"
         style="stroke-linecap:butt;stroke-linejoin:round">
        <!-- 2.0 -->
        <defs
           id="defs5530">
          <path
             d="m 3.46875,0 v 9.515625 q 2.34375,5.140625 5.703125,9.265625 3.375,4.125 7.0625,7.5625 3.6875,3.4375 7.328125,6.390625 3.640625,2.953125 6.546875,5.71875 Q 33.015625,41.21875 34.8125,44 q 1.8125,2.78125 1.8125,5.90625 0,4.59375 -2.296875,6.78125 -2.296875,2.203125 -6.734375,2.203125 -4.40625,0 -6.71875,-2.375 -2.3125,-2.359375 -3,-7.09375 l -13.828125,0.78125 q 0.5,4.046875 2,7.609375 1.515625,3.5625 4.328125,6.25 2.8125,2.6875 7.03125,4.21875 4.21875,1.546875 10.078125,1.546875 5.578125,0 9.875,-1.296875 4.296875,-1.296875 7.21875,-3.796875 2.9375,-2.484375 4.4375,-6.078125 Q 50.53125,55.078125 50.53125,50.484375 50.53125,45.65625 48.625,41.75 46.734375,37.84375 43.75,34.546875 40.765625,31.25 37.125,28.359375 33.5,25.484375 30.078125,22.75 26.65625,20.015625 23.84375,17.234375 21.046875,14.453125 19.671875,11.28125 h 31.9375 V 0 Z"
             id="LiberationSans-Bold-32"
             inkscape:connector-curvature="0"
             style="stroke-linecap:butt;stroke-linejoin:round" />
        </defs>
        <g
           style="fill:#262626;stroke-linecap:butt;stroke-linejoin:round"
           transform="matrix(0.24,0,0,-0.24,94.64,379.83911)"
           id="g5538">
          <use
             xlink:href="#LiberationSans-Bold-32"
             id="use5532"
             style="stroke-linecap:butt;stroke-linejoin:round"
             x="0"
             y="0"
             width="100%"
             height="100%" />
          <use
             x="55.615234"
             xlink:href="#LiberationSans-Bold-2e"
             id="use5534"
             style="stroke-linecap:butt;stroke-linejoin:round"
             y="0"
             width="100%"
             height="100%" />
          <use
             x="83.398438"
             xlink:href="#LiberationSans-Bold-30"
             id="use5536"
             style="stroke-linecap:butt;stroke-linejoin:round"
             y="0"
             width="100%"
             height="100%" />
        </g>
      </g>
    </g>
    <g
       id="ytick_6"
       style="stroke-linecap:butt;stroke-linejoin:round">
      <g
         id="line2d_10"
         style="stroke-linecap:butt;stroke-linejoin:round" />
      <g
         id="text_11"
         style="stroke-linecap:butt;stroke-linejoin:round">
        <!-- 2.5 -->
        <g
           style="fill:#262626;stroke-linecap:butt;stroke-linejoin:round"
           transform="matrix(0.24,0,0,-0.24,94.64,315.12482)"
           id="g5549">
          <use
             xlink:href="#LiberationSans-Bold-32"
             id="use5543"
             style="stroke-linecap:butt;stroke-linejoin:round"
             x="0"
             y="0"
             width="100%"
             height="100%" />
          <use
             x="55.615234"
             xlink:href="#LiberationSans-Bold-2e"
             id="use5545"
             style="stroke-linecap:butt;stroke-linejoin:round"
             y="0"
             width="100%"
             height="100%" />
          <use
             x="83.398438"
             xlink:href="#LiberationSans-Bold-35"
             id="use5547"
             style="stroke-linecap:butt;stroke-linejoin:round"
             y="0"
             width="100%"
             height="100%" />
        </g>
      </g>
    </g>
    <g
       id="ytick_7"
       style="stroke-linecap:butt;stroke-linejoin:round">
      <g
         id="line2d_11"
         style="stroke-linecap:butt;stroke-linejoin:round" />
      <g
         id="text_12"
         style="stroke-linecap:butt;stroke-linejoin:round">
        <!-- 3.0 -->
        <defs
           id="defs5555">
          <path
             d="M 52,19.09375 Q 52,14.40625 50.453125,10.671875 48.921875,6.9375 45.84375,4.296875 42.78125,1.65625 38.203125,0.265625 33.640625,-1.125 27.59375,-1.125 q -6.75,0 -11.359375,1.703125 -4.609375,1.71875 -7.5625,4.515625 -2.953125,2.8125 -4.453125,6.375 -1.484375,3.578125 -1.921875,7.234375 l 13.96875,1.21875 q 0.28125,-2.203125 1.09375,-4.03125 0.8125,-1.828125 2.171875,-3.15625 1.375,-1.3125 3.34375,-2.015625 1.984375,-0.703125 4.671875,-0.703125 4.921875,0 7.65625,2.4375 2.734375,2.4375 2.734375,7.46875 0,3.078125 -1.296875,4.921875 -1.28125,1.859375 -3.265625,2.859375 -1.984375,1.015625 -4.28125,1.34375 -2.28125,0.34375 -4.34375,0.34375 h -4.78125 v 11.09375 h 4.5 q 2.046875,0 4.171875,0.390625 2.125,0.390625 3.828125,1.40625 1.71875,1.03125 2.78125,2.859375 1.078125,1.828125 1.078125,4.671875 0,4.234375 -2.375,6.65625 -2.359375,2.421875 -6.90625,2.421875 -4.25,0 -6.859375,-2.34375 -2.609375,-2.34375 -3,-6.640625 L 3.46875,50.875 q 0.578125,4.84375 2.65625,8.40625 2.078125,3.5625 5.21875,5.90625 3.15625,2.34375 7.25,3.484375 4.109375,1.15625 8.703125,1.15625 6.046875,0 10.390625,-1.46875 4.359375,-1.46875 7.140625,-3.953125 2.78125,-2.484375 4.09375,-5.8125 Q 50.25,55.28125 50.25,51.515625 q 0,-3.03125 -0.890625,-5.640625 -0.875,-2.609375 -2.65625,-4.6875 -1.78125,-2.078125 -4.5625,-3.5625 -2.78125,-1.484375 -6.59375,-2.21875 v -0.203125 q 4.25,-0.484375 7.375,-1.921875 3.125,-1.4375 5.125,-3.59375 2,-2.140625 2.96875,-4.859375 Q 52,22.125 52,19.09375 Z"
             id="LiberationSans-Bold-33"
             inkscape:connector-curvature="0"
             style="stroke-linecap:butt;stroke-linejoin:round" />
        </defs>
        <g
           style="fill:#262626;stroke-linecap:butt;stroke-linejoin:round"
           transform="matrix(0.24,0,0,-0.24,94.64,250.41054)"
           id="g5563">
          <use
             xlink:href="#LiberationSans-Bold-33"
             id="use5557"
             style="stroke-linecap:butt;stroke-linejoin:round"
             x="0"
             y="0"
             width="100%"
             height="100%" />
          <use
             x="55.615234"
             xlink:href="#LiberationSans-Bold-2e"
             id="use5559"
             style="stroke-linecap:butt;stroke-linejoin:round"
             y="0"
             width="100%"
             height="100%" />
          <use
             x="83.398438"
             xlink:href="#LiberationSans-Bold-30"
             id="use5561"
             style="stroke-linecap:butt;stroke-linejoin:round"
             y="0"
             width="100%"
             height="100%" />
        </g>
      </g>
    </g>
    <g
       id="ytick_8"
       style="stroke-linecap:butt;stroke-linejoin:round">
      <g
         id="line2d_12"
         style="stroke-linecap:butt;stroke-linejoin:round" />
      <g
         id="text_13"
         style="stroke-linecap:butt;stroke-linejoin:round">
        <!-- 3.5 -->
        <g
           style="fill:#262626;stroke-linecap:butt;stroke-linejoin:round"
           transform="matrix(0.24,0,0,-0.24,94.64,185.69625)"
           id="g5574">
          <use
             xlink:href="#LiberationSans-Bold-33"
             id="use5568"
             style="stroke-linecap:butt;stroke-linejoin:round"
             x="0"
             y="0"
             width="100%"
             height="100%" />
          <use
             x="55.615234"
             xlink:href="#LiberationSans-Bold-2e"
             id="use5570"
             style="stroke-linecap:butt;stroke-linejoin:round"
             y="0"
             width="100%"
             height="100%" />
          <use
             x="83.398438"
             xlink:href="#LiberationSans-Bold-35"
             id="use5572"
             style="stroke-linecap:butt;stroke-linejoin:round"
             y="0"
             width="100%"
             height="100%" />
        </g>
      </g>
    </g>
    <g
       id="ytick_9"
       style="stroke-linecap:butt;stroke-linejoin:round">
      <g
         id="line2d_13"
         style="stroke-linecap:butt;stroke-linejoin:round" />
      <g
         id="text_14"
         style="stroke-linecap:butt;stroke-linejoin:round">
        <!-- 4.0 -->
        <defs
           id="defs5580">
          <path
             d="M 45.90625,14.015625 V 0 H 32.8125 V 14.015625 H 1.515625 V 24.3125 L 30.5625,68.796875 H 45.90625 V 24.21875 h 9.171875 V 14.015625 Z M 32.8125,46.734375 q 0,0.828125 0.01563,2.171875 0.03125,1.34375 0.109375,2.75 0.07813,1.421875 0.140625,2.71875 0.07813,1.296875 0.171875,2.015625 -0.234375,-0.53125 -0.78125,-1.53125 -0.53125,-1 -1.203125,-2.15625 -0.65625,-1.140625 -1.359375,-2.265625 -0.703125,-1.125 -1.25,-1.953125 L 12.703125,24.21875 H 32.8125 Z"
             id="LiberationSans-Bold-34"
             inkscape:connector-curvature="0"
             style="stroke-linecap:butt;stroke-linejoin:round" />
        </defs>
        <g
           style="fill:#262626;stroke-linecap:butt;stroke-linejoin:round"
           transform="matrix(0.24,0,0,-0.24,94.64,120.98196)"
           id="g5588">
          <use
             xlink:href="#LiberationSans-Bold-34"
             id="use5582"
             style="stroke-linecap:butt;stroke-linejoin:round"
             x="0"
             y="0"
             width="100%"
             height="100%" />
          <use
             x="55.615234"
             xlink:href="#LiberationSans-Bold-2e"
             id="use5584"
             style="stroke-linecap:butt;stroke-linejoin:round"
             y="0"
             width="100%"
             height="100%" />
          <use
             x="83.398438"
             xlink:href="#LiberationSans-Bold-30"
             id="use5586"
             style="stroke-linecap:butt;stroke-linejoin:round"
             y="0"
             width="100%"
             height="100%" />
        </g>
      </g>
    </g>
    <g
       id="text_15"
       style="stroke-linecap:butt;stroke-linejoin:round"
       transform="translate(-15)">
      <!-- Feature statistics -->
      <defs
         id="defs5594">
        <path
           id="LiberationSans-Bold-20"
           d=""
           inkscape:connector-curvature="0"
           style="stroke-linecap:butt;stroke-linejoin:round" />
        <path
           d="m 29,-0.984375 q -6.296875,0 -11.015625,1.953125 Q 13.28125,2.9375 10.15625,6.5 q -3.125,3.5625 -4.6875,8.5625 -1.5625,5 -1.5625,11.0625 0,6.59375 1.703125,11.734375 1.71875,5.15625 4.9375,8.6875 3.21875,3.546875 7.921875,5.40625 4.71875,1.859375 10.734375,1.859375 5.125,0 9.09375,-1.375 3.984375,-1.359375 6.859375,-3.734375 2.890625,-2.359375 4.671875,-5.59375 1.78125,-3.21875 2.46875,-6.921875 L 38.484375,35.5 q -0.59375,4.046875 -2.9375,6.46875 -2.34375,2.421875 -6.640625,2.421875 -5.515625,0 -8.0625,-4.546875 -2.53125,-4.546875 -2.53125,-13.1875 0,-18.25 10.796875,-18.25 3.90625,0 6.53125,2.453125 2.640625,2.46875 3.28125,7.359375 L 52.6875,17.578125 q -0.484375,-3.65625 -2.21875,-7 Q 48.734375,7.234375 45.78125,4.65625 42.828125,2.09375 38.625,0.546875 34.421875,-0.984375 29,-0.984375 Z"
           id="LiberationSans-Bold-63"
           inkscape:connector-curvature="0"
           style="stroke-linecap:butt;stroke-linejoin:round" />
      </defs>
      <g
         style="fill:#262626;stroke-linecap:butt;stroke-linejoin:round"
         transform="matrix(0,-0.32,-0.32,0,84,489.7975)"
         id="g5632">
        <use
           xlink:href="#LiberationSans-Bold-46"
           id="use5596"
           style="stroke-linecap:butt;stroke-linejoin:round"
           x="0"
           y="0"
           width="100%"
           height="100%" />
        <use
           x="61.083984"
           xlink:href="#LiberationSans-Bold-65"
           id="use5598"
           style="stroke-linecap:butt;stroke-linejoin:round"
           y="0"
           width="100%"
           height="100%" />
        <use
           x="116.69922"
           xlink:href="#LiberationSans-Bold-61"
           id="use5600"
           style="stroke-linecap:butt;stroke-linejoin:round"
           y="0"
           width="100%"
           height="100%" />
        <use
           x="172.31445"
           xlink:href="#LiberationSans-Bold-74"
           id="use5602"
           style="stroke-linecap:butt;stroke-linejoin:round"
           y="0"
           width="100%"
           height="100%" />
        <use
           x="205.61523"
           xlink:href="#LiberationSans-Bold-75"
           id="use5604"
           style="stroke-linecap:butt;stroke-linejoin:round"
           y="0"
           width="100%"
           height="100%" />
        <use
           x="266.69922"
           xlink:href="#LiberationSans-Bold-72"
           id="use5606"
           style="stroke-linecap:butt;stroke-linejoin:round"
           y="0"
           width="100%"
           height="100%" />
        <use
           x="305.61523"
           xlink:href="#LiberationSans-Bold-65"
           id="use5608"
           style="stroke-linecap:butt;stroke-linejoin:round"
           y="0"
           width="100%"
           height="100%" />
        <use
           x="361.23047"
           xlink:href="#LiberationSans-Bold-20"
           id="use5610"
           style="stroke-linecap:butt;stroke-linejoin:round"
           y="0"
           width="100%"
           height="100%" />
        <use
           x="389.01367"
           xlink:href="#LiberationSans-Bold-73"
           id="use5612"
           style="stroke-linecap:butt;stroke-linejoin:round"
           y="0"
           width="100%"
           height="100%" />
        <use
           x="444.62891"
           xlink:href="#LiberationSans-Bold-74"
           id="use5614"
           style="stroke-linecap:butt;stroke-linejoin:round"
           y="0"
           width="100%"
           height="100%" />
        <use
           x="477.92969"
           xlink:href="#LiberationSans-Bold-61"
           id="use5616"
           style="stroke-linecap:butt;stroke-linejoin:round"
           y="0"
           width="100%"
           height="100%" />
        <use
           x="533.54492"
           xlink:href="#LiberationSans-Bold-74"
           id="use5618"
           style="stroke-linecap:butt;stroke-linejoin:round"
           y="0"
           width="100%"
           height="100%" />
        <use
           x="566.8457"
           xlink:href="#LiberationSans-Bold-69"
           id="use5620"
           style="stroke-linecap:butt;stroke-linejoin:round"
           y="0"
           width="100%"
           height="100%" />
        <use
           x="594.62891"
           xlink:href="#LiberationSans-Bold-73"
           id="use5622"
           style="stroke-linecap:butt;stroke-linejoin:round"
           y="0"
           width="100%"
           height="100%" />
        <use
           x="650.24414"
           xlink:href="#LiberationSans-Bold-74"
           id="use5624"
           style="stroke-linecap:butt;stroke-linejoin:round"
           y="0"
           width="100%"
           height="100%" />
        <use
           x="683.54492"
           xlink:href="#LiberationSans-Bold-69"
           id="use5626"
           style="stroke-linecap:butt;stroke-linejoin:round"
           y="0"
           width="100%"
           height="100%" />
        <use
           x="711.32812"
           xlink:href="#LiberationSans-Bold-63"
           id="use5628"
           style="stroke-linecap:butt;stroke-linejoin:round"
           y="0"
           width="100%"
           height="100%" />
        <use
           x="766.94336"
           xlink:href="#LiberationSans-Bold-73"
           id="use5630"
           style="stroke-linecap:butt;stroke-linejoin:round"
           y="0"
           width="100%"
           height="100%" />
      </g>
    </g>
    <g
       style="stroke-linecap:butt;stroke-linejoin:round"
       id="patch_3"
       transform="matrix(0.51282051,0,0,1,117.07369,-1.7129262)">
      <path
         inkscape:connector-curvature="0"
         id="path5636"
         style="fill:#5875a4;stroke-linecap:butt;stroke-linejoin:round"
         d="m 155.925,630 h 167.4 V 112.28571 h -167.4 z"
         clip-path="url(#p9faf42530f)" />
    </g>
    <g
       style="stroke-linecap:butt;stroke-linejoin:round"
       id="patch_4"
       transform="matrix(0.51907089,0,0,1,214.62329,0)">
      <path
         inkscape:connector-curvature="0"
         id="path5639"
         style="fill:#5875a4;stroke-linecap:butt;stroke-linejoin:round"
         d="m 365.175,630 h 167.4 V 371.14286 h -167.4 z"
         clip-path="url(#p9faf42530f)" />
    </g>
    <g
       style="stroke-linecap:butt;stroke-linejoin:round"
       id="patch_5"
       transform="matrix(0.47237671,0,0,1,340.40415,0)">
      <path
         inkscape:connector-curvature="0"
         id="path5642"
         style="fill:#5875a4;stroke-linecap:butt;stroke-linejoin:round"
         d="m 574.425,630 h 167.4 V 306.42857 h -167.4 z"
         clip-path="url(#p9faf42530f)" />
    </g>
    <g
       style="stroke-linecap:butt;stroke-linejoin:round"
       id="patch_6"
       transform="matrix(0.47302448,0,0,1,457.69324,0)">
      <path
         inkscape:connector-curvature="0"
         id="path5645"
         style="fill:#5875a4;stroke-linecap:butt;stroke-linejoin:round"
         d="m 783.675,630 h 167.4 V 241.71429 h -167.4 z"
         clip-path="url(#p9faf42530f)" />
    </g>
    <g
       style="stroke-linecap:butt;stroke-linejoin:round"
       id="line2d_14">
      <path
         inkscape:connector-curvature="0"
         id="path5648"
         style="fill:none;stroke:#424242;stroke-width:3.1500001;stroke-linecap:round;stroke-linejoin:round"
         d="M 0,0"
         clip-path="url(#p9faf42530f)" />
    </g>
    <g
       style="stroke-linecap:butt;stroke-linejoin:round"
       id="line2d_15">
      <path
         inkscape:connector-curvature="0"
         id="path5651"
         style="fill:none;stroke:#424242;stroke-width:3.1500001;stroke-linecap:round;stroke-linejoin:round"
         d="M 0,0"
         clip-path="url(#p9faf42530f)" />
    </g>
    <g
       style="stroke-linecap:butt;stroke-linejoin:round"
       id="line2d_16">
      <path
         inkscape:connector-curvature="0"
         id="path5654"
         style="fill:none;stroke:#424242;stroke-width:3.1500001;stroke-linecap:round;stroke-linejoin:round"
         d="M 0,0"
         clip-path="url(#p9faf42530f)" />
    </g>
    <g
       style="stroke-linecap:butt;stroke-linejoin:round"
       id="line2d_17">
      <path
         inkscape:connector-curvature="0"
         id="path5657"
         style="fill:none;stroke:#424242;stroke-width:3.1500001;stroke-linecap:round;stroke-linejoin:round"
         d="M 0,0"
         clip-path="url(#p9faf42530f)" />
    </g>
    <g
       style="stroke-linecap:butt;stroke-linejoin:round"
       id="patch_7">
      <path
         inkscape:connector-curvature="0"
         id="path5660"
         style="fill:none;stroke:#262626;stroke-width:4;stroke-linecap:square;stroke-linejoin:miter"
         d="M 135,630 V 86.4" />
    </g>
    <g
       style="stroke-linecap:butt;stroke-linejoin:round"
       id="patch_8">
      <path
         inkscape:connector-curvature="0"
         id="path5663"
         style="fill:none;stroke:#262626;stroke-width:4;stroke-linecap:square;stroke-linejoin:miter"
         d="M 135,630 H 972" />
    </g>
  </g>
  <defs
     id="defs5671">
    <clipPath
       id="p9faf42530f">
      <rect
         height="543.6"
         width="837"
         x="135"
         y="86.4"
         id="rect5668" />
    </clipPath>
  </defs>
</svg>
